<?xml version="1.0" encoding="UTF-8"?>
<svg id="Layer_2" data-name="Layer 2" xmlns="http://www.w3.org/2000/svg" viewBox="0 0 2340.72 2078.69">
  <defs>
    <style>
      .cls-1 {
        fill: #fff;
      }

      .cls-2 {
        fill: #a5ba42;
      }
    </style>
  </defs>
  <g id="Layer_1-2" data-name="Layer 1">
    <g>
      <g>
        <g>
          <path class="cls-1" d="M38.14,1562.06c33.48,31.96,65.95,64.75,97.41,98.36,31.58-33.61,64.11-66.4,97.6-98.36h38.43v265.02h-42.81v-198.05c-20.93,20.55-41.54,41.85-61.83,63.92,10.02,14.46,18.2,28.41,24.54,41.85,13.19,32.98,10.84,57.39-7.04,73.25-14.46,12.56-30.76,18.83-48.89,18.83s-34.37-6.28-48.7-18.83c-17.88-15.85-20.23-40.27-7.04-73.25,6.34-13.44,14.52-27.4,24.54-41.85-20.29-22.07-40.9-43.38-61.83-63.92v198.05H.09v-265.02h38.05ZM122.8,1780.28c3.68,3.17,7.96,4.76,12.84,4.76s9.16-1.58,12.84-4.76c5.45-4.57,5.01-14.46-1.33-29.68-3.17-6.72-7.04-13.76-11.6-21.12-4.44,7.36-8.25,14.4-11.42,21.12-6.34,15.22-6.79,25.11-1.33,29.68Z"/>
          <path class="cls-1" d="M332.08,1562.06v265.02h-41.47v-265.02h41.47Z"/>
          <path class="cls-1" d="M391.62,1562.06l131.65,188.92v-188.92h41.66v265.02h-39.19l-133.17-191.2v191.2h-41.47v-265.02h40.52Z"/>
          <path class="cls-1" d="M684.04,1562.06c28.66,0,52.16,7.58,70.49,22.73,18.33,15.16,31.49,34.21,39.48,57.17,11.8,35.01,11.8,70.08,0,105.21-7.99,22.96-21.15,42.01-39.48,57.17-18.33,15.16-41.82,22.73-70.49,22.73h-100.07v-265.02h100.07ZM729.03,1618.85c-11.73-9.83-26.73-14.74-44.99-14.74h-58.6v180.93h58.6c18.26,0,33.26-4.91,44.99-14.74,11.73-9.83,20.2-22.23,25.4-37.19,8.75-25.75,8.75-51.49,0-77.24-5.2-14.84-13.67-27.17-25.4-37Z"/>
          <path class="cls-1" d="M951.14,1614.38c-10.53-10.65-25.75-16.04-45.66-16.17-1.65.13-3.49.26-5.52.38-7.61.76-14.87,3.14-21.78,7.13-6.91,4-11.77,9.8-14.55,17.41-2.66,10.02.44,17.95,9.32,23.78,14.71,9.51,29.87,16.68,45.47,21.5,22.7,5.84,44.45,18.52,65.25,38.05,16.11,17.5,22.57,38.05,19.41,61.64-2.41,15.35-9.58,28.73-21.5,40.14-18.26,15.35-39.38,23.46-63.35,24.35-16.49.89-32.22-1.46-47.18-7.04-36.78-15.85-56.57-41.54-59.36-77.05h42.43c2.16,17.12,12.81,29.81,31.96,38.05,9.13,3.3,19.09,4.63,29.87,3.99,6.21-.25,12.71-1.39,19.5-3.42,6.78-2.03,12.59-5.14,17.41-9.32,4.95-4.82,7.93-10.27,8.94-16.36,1.27-10.15-1.65-18.9-8.75-26.25-14.97-13.57-33.86-23.97-56.69-31.2-17.38-5.96-33.23-13.51-47.56-22.64-12.3-8.88-20.55-19.34-24.73-31.39-4.57-13.44-4.63-26.7-.19-39.76,13.32-31.83,37.41-49.59,72.29-53.27,2.66-.25,5.39-.44,8.18-.57,32.34.13,57.58,9.32,75.72,27.59,16.11,15.98,26,34.24,29.68,54.79h-43.19c-2.92-9.13-8.06-17.25-15.41-24.35Z"/>
          <path class="cls-1" d="M1180.2,1673.74v-111.68h41.47v265.02h-41.47v-111.87h-109.96v111.87h-41.47v-265.02h41.47v111.68h109.96Z"/>
          <path class="cls-1" d="M1350.29,1562.06c26.38,0,48.96,9.39,67.73,28.16,18.64,20.55,27.97,43.06,27.97,67.54s-9.32,46.99-27.97,67.54c-8.88,8.88-19.22,15.79-31.01,20.74l53.27,81.05h-49.65l-48.51-73.63h-59.74v73.63h-41.66v-265.02h109.58ZM1282.37,1604.11v107.3h67.92c14.71,0,27.33-5.26,37.86-15.79,10.53-11.54,15.79-24.16,15.79-37.86s-5.26-26.32-15.79-37.86c-10.53-10.53-23.15-15.79-37.86-15.79h-67.92Z"/>
          <path class="cls-2" d="M1639.08,1563.39c5.58,3.93,10.84,8.94,15.79,15.03,7.73-.76,15.03-.57,21.88.57,12.05,2.03,22.19,7.1,30.44,15.22,7.99,8.25,13.06,18.39,15.22,30.44,1.14,6.85,1.27,14.14.38,21.88,6.09,4.82,11.16,10.08,15.22,15.79,7.1,9.89,10.65,20.61,10.65,32.15s-3.55,22.26-10.65,32.15c-4.06,5.71-9.13,10.97-15.22,15.79.89,7.74.7,15.03-.57,21.88-2.03,12.05-7.04,22.2-15.03,30.44h-.19c-8.25,8.12-18.33,13.19-30.25,15.22-6.85,1.14-14.14,1.33-21.88.57-4.95,6.09-10.21,11.1-15.79,15.03-10.02,7.1-20.74,10.65-32.15,10.65s-22.32-3.55-32.34-10.65c-5.58-3.93-10.84-8.94-15.79-15.03-7.74.76-15.03.57-21.88-.57-12.05-2.03-22.2-7.1-30.44-15.22-7.99-8.24-13-18.39-15.03-30.44-1.27-6.85-1.46-14.14-.57-21.88-6.09-4.82-11.16-10.08-15.22-15.79-7.1-9.89-10.65-20.61-10.65-32.15s3.55-22.26,10.65-32.15c4.06-5.71,9.13-10.97,15.22-15.79-.89-7.73-.7-15.03.57-21.88,2.03-12.05,7.04-22.19,15.03-30.44h.19c8.24-8.12,18.33-13.19,30.25-15.22,6.85-1.14,14.14-1.33,21.88-.57,4.95-6.09,10.27-11.1,15.98-15.03,9.89-7.1,20.61-10.65,32.15-10.65s22.13,3.55,32.15,10.65ZM1606.93,1592.31c-3.17,0-6.34,1.14-9.51,3.42-4.57,3.3-8.88,8.18-12.94,14.65l-7.42,12.18-13.89-3.23c-7.49-1.77-14.02-2.22-19.6-1.33-3.81.64-6.79,2.03-8.94,4.19-2.16,2.28-3.55,5.33-4.19,9.13-1.02,5.45-.64,11.99,1.14,19.6l3.23,13.7-11.99,7.61c-6.6,3.93-11.48,8.25-14.65,12.94-2.28,3.17-3.42,6.28-3.42,9.32s1.14,6.15,3.42,9.32c3.17,4.69,8.05,9.01,14.65,12.94l11.99,7.61-3.23,13.7c-1.78,7.61-2.16,14.14-1.14,19.6.63,3.8,2.03,6.85,4.19,9.13,2.15,2.16,5.14,3.55,8.94,4.19,5.58.89,12.11.45,19.6-1.33l13.89-3.23,7.42,12.18c4.06,6.47,8.37,11.35,12.94,14.65,3.17,2.28,6.34,3.42,9.51,3.42s6.15-1.14,9.32-3.42c4.57-3.3,8.88-8.18,12.94-14.65l7.42-12.18,13.89,3.23c7.48,1.78,14.01,2.22,19.6,1.33,3.8-.63,6.78-2.03,8.94-4.19,2.16-2.28,3.55-5.33,4.19-9.13,1.01-5.45.63-11.99-1.14-19.6l-3.23-13.7,11.99-7.61c6.59-3.93,11.48-8.24,14.65-12.94,2.28-3.17,3.42-6.28,3.42-9.32s-1.14-6.15-3.42-9.32c-3.17-4.69-8.06-9-14.65-12.94l-11.99-7.61,3.23-13.7c1.77-7.61,2.16-14.14,1.14-19.6-.64-3.8-2.03-6.85-4.19-9.13-2.16-2.16-5.14-3.55-8.94-4.19-5.58-.89-12.11-.44-19.6,1.33l-13.89,3.23-7.42-12.18c-4.06-6.47-8.37-11.35-12.94-14.65-3.17-2.28-6.28-3.42-9.32-3.42Z"/>
          <path class="cls-2" d="M1941.77,1563.39c5.58,3.93,10.84,8.94,15.79,15.03,7.73-.76,15.03-.57,21.88.57,12.05,2.03,22.19,7.1,30.44,15.22,7.99,8.25,13.06,18.39,15.22,30.44,1.14,6.85,1.27,14.14.38,21.88,6.09,4.82,11.16,10.08,15.22,15.79,7.1,9.89,10.65,20.61,10.65,32.15s-3.55,22.26-10.65,32.15c-4.06,5.71-9.13,10.97-15.22,15.79.89,7.74.7,15.03-.57,21.88-2.03,12.05-7.04,22.2-15.03,30.44h-.19c-8.25,8.12-18.33,13.19-30.25,15.22-6.85,1.14-14.14,1.33-21.88.57-4.95,6.09-10.21,11.1-15.79,15.03-10.02,7.1-20.74,10.65-32.15,10.65s-22.32-3.55-32.34-10.65c-5.58-3.93-10.84-8.94-15.79-15.03-7.74.76-15.03.57-21.88-.57-12.05-2.03-22.2-7.1-30.44-15.22-7.99-8.24-13-18.39-15.03-30.44-1.27-6.85-1.46-14.14-.57-21.88-6.09-4.82-11.16-10.08-15.22-15.79-7.1-9.89-10.65-20.61-10.65-32.15s3.55-22.26,10.65-32.15c4.06-5.71,9.13-10.97,15.22-15.79-.89-7.73-.7-15.03.57-21.88,2.03-12.05,7.04-22.19,15.03-30.44h.19c8.24-8.12,18.33-13.19,30.25-15.22,6.85-1.14,14.14-1.33,21.88-.57,4.95-6.09,10.27-11.1,15.98-15.03,9.89-7.1,20.61-10.65,32.15-10.65s22.13,3.55,32.15,10.65ZM1909.62,1592.31c-3.17,0-6.34,1.14-9.51,3.42-4.57,3.3-8.88,8.18-12.94,14.65l-7.42,12.18-13.89-3.23c-7.49-1.77-14.02-2.22-19.6-1.33-3.81.64-6.79,2.03-8.94,4.19-2.16,2.28-3.55,5.33-4.19,9.13-1.02,5.45-.64,11.99,1.14,19.6l3.23,13.7-11.99,7.61c-6.6,3.93-11.48,8.25-14.65,12.94-2.28,3.17-3.42,6.28-3.42,9.32s1.14,6.15,3.42,9.32c3.17,4.69,8.05,9.01,14.65,12.94l11.99,7.61-3.23,13.7c-1.78,7.61-2.16,14.14-1.14,19.6.63,3.8,2.03,6.85,4.19,9.13,2.15,2.16,5.14,3.55,8.94,4.19,5.58.89,12.11.45,19.6-1.33l13.89-3.23,7.42,12.18c4.06,6.47,8.37,11.35,12.94,14.65,3.17,2.28,6.34,3.42,9.51,3.42s6.15-1.14,9.32-3.42c4.57-3.3,8.88-8.18,12.94-14.65l7.42-12.18,13.89,3.23c7.48,1.78,14.01,2.22,19.6,1.33,3.8-.63,6.78-2.03,8.94-4.19,2.16-2.28,3.55-5.33,4.19-9.13,1.01-5.45.63-11.99-1.14-19.6l-3.23-13.7,11.99-7.61c6.59-3.93,11.48-8.24,14.65-12.94,2.28-3.17,3.42-6.28,3.42-9.32s-1.14-6.15-3.42-9.32c-3.17-4.69-8.06-9-14.65-12.94l-11.99-7.61,3.23-13.7c1.77-7.61,2.16-14.14,1.14-19.6-.64-3.8-2.03-6.85-4.19-9.13-2.16-2.16-5.14-3.55-8.94-4.19-5.58-.89-12.11-.44-19.6,1.33l-13.89,3.23-7.42-12.18c-4.06-6.47-8.37-11.35-12.94-14.65-3.17-2.28-6.28-3.42-9.32-3.42Z"/>
          <path class="cls-1" d="M2111.28,1562.06l94.17,201.28,93.98-201.28h41.09v265.02h-41.47v-165.9l-77.62,165.9h-32.15l-77.43-165.9v165.9h-41.47v-265.02h40.9Z"/>
        </g>
        <g>
          <path class="cls-1" d="M1519.05,2044.89c3.83,3.88,5.75,8.54,5.75,13.99s-1.92,10.11-5.75,13.99c-3.83,3.88-8.52,5.82-14.06,5.82s-10.08-1.94-13.91-5.82c-3.83-3.88-5.75-8.54-5.75-13.99s1.91-10.11,5.75-13.99c3.83-3.88,8.47-5.82,13.91-5.82s10.23,1.94,14.06,5.82Z"/>
          <path class="cls-1" d="M1622.95,1956.65c-5.24-4.33-12.23-6.98-20.95-7.94-8.72-.96-15.91.58-21.55,4.61-3.53,3.23-4.19,6.45-1.97,9.68,2.22,3.23,5.14,5.75,8.77,7.56,8.37,4.14,17.14,7.06,26.31,8.77,8.17,1.61,15.98,4.08,23.44,7.41,11.09,5.65,18.8,12.96,23.14,21.93,8.67,20.26,4.74,37.61-11.8,52.02-10.59,8.27-22.96,12.98-37.13,14.14-14.17,1.16-27.25-1.08-39.24-6.73-19.36-9.98-30.05-25.81-32.06-47.49h33.57c1.31,8.07,5.65,13.86,13.01,17.39,6.86,3.13,14.27,4.34,22.23,3.63,7.66-.81,13.86-3.07,18.6-6.81,3.73-3.33,4.92-6.63,3.55-9.91-1.36-3.28-4.16-5.97-8.39-8.09-6.86-3.02-14.17-5.34-21.93-6.96-9.48-1.71-19.26-5.04-29.34-9.98-14.72-8.57-23.62-19.91-26.69-34.03-3.08-14.11,1.94-26.97,15.05-38.56,12.3-9.17,26.77-13.16,43.4-11.95s30.75,6.71,42.34,16.48c10.69,9.78,16.89,22.38,18.6,37.81l-33.72.15c-1.21-5.34-3.63-9.73-7.26-13.16Z"/>
          <path class="cls-1" d="M1760.87,1954.68h-39.17v40.98c0,12.6,4.44,23.34,13.31,32.21,7.56,7.36,16.18,11.7,25.86,13.01v33.57c-18.55-1.41-35.03-9.02-49.45-22.84-15.43-15.52-23.14-34.18-23.14-55.95v-109.94h32.97v35.84h39.62v33.12Z"/>
          <path class="cls-1" d="M1775.99,1995.66v-74.1h33.42v74.1c0,12.6,4.49,23.34,13.46,32.21,9.88,8.97,20.62,13.46,32.21,13.46s22.33-4.48,32.21-13.46c6.45-6.45,10.64-14.31,12.55-23.59v-82.72h32.97v150.47h-32.97v-11.19c-15.93,10.59-33.12,15.12-51.57,13.61-18.45-1.51-34.78-9.12-49-22.84-15.53-15.52-23.29-34.18-23.29-55.95Z"/>
          <path class="cls-1" d="M2108.54,1861.37v210.66h-33.12v-12.7c-13.81,10.28-29.54,15.43-47.18,15.43-22.18,0-41.11-7.84-56.79-23.52-15.68-15.68-23.52-34.61-23.52-56.79s7.84-40.96,23.52-56.64c15.68-15.68,34.61-23.52,56.79-23.52,17.64,0,33.37,5.14,47.18,15.43v-68.36h33.12ZM2075.42,1990.37c-1.31-12.4-6.4-22.71-15.27-30.93-8.87-8.22-19.51-12.33-31.91-12.33-13.11,0-24.3,4.64-33.57,13.91-9.28,9.28-13.91,20.42-13.91,33.42s4.64,24.3,13.91,33.57c9.27,9.28,20.47,13.91,33.57,13.91,12.4,0,23.04-4.11,31.91-12.33,8.87-8.22,13.96-18.53,15.27-30.93v-8.32Z"/>
          <path class="cls-1" d="M2158.9,1867.42c4.03,4.03,6.05,8.92,6.05,14.67s-2.02,10.49-6.05,14.52-8.87,6.05-14.52,6.05-10.64-2.02-14.67-6.05c-4.03-4.03-6.05-8.87-6.05-14.52s2.02-10.64,6.05-14.67c4.03-4.03,8.92-6.05,14.67-6.05s10.48,2.02,14.52,6.05ZM2160.87,2072.03h-33.12v-150.47h33.12v150.47Z"/>
          <path class="cls-1" d="M2203.59,2051.24c-15.68-15.68-23.52-34.61-23.52-56.79s7.84-40.96,23.52-56.64c15.68-15.68,34.61-23.52,56.79-23.52s41.08,7.84,56.71,23.52c15.63,15.68,23.44,34.56,23.44,56.64s-7.81,41.11-23.44,56.79c-15.63,15.68-34.53,23.52-56.71,23.52s-41.11-7.84-56.79-23.52ZM2293.95,2028.03c9.27-9.27,13.91-20.47,13.91-33.57s-4.64-24.14-13.91-33.42c-9.28-9.27-20.47-13.91-33.57-13.91s-24.3,4.64-33.57,13.91c-9.28,9.28-13.91,20.42-13.91,33.42s4.64,24.3,13.91,33.57c9.27,9.28,20.47,13.91,33.57,13.91s24.3-4.64,33.57-13.91Z"/>
        </g>
      </g>
      <path class="cls-1" d="M1169.39,228.66c37.44-32.94,73.27-68.8,113.34-99.04,273.59-206.47,699.23-159.44,915.17,100.16,96.38,115.87,142.33,250.24,142.63,400.1.53,261.55-.2,523.11-.41,784.66,0,6.54.14,13.09-.2,19.61-1.85,35.35-18.44,53.2-53.63,53.27-187.17.35-374.35-.15-561.53.09-14.36.02-19.42-5.92-22.54-19.1-39.53-167.11-74.77-334.86-77.93-507.52-1.62-88.5.9-176.84,31.16-261.29,10.35-28.88,24.05-57.46,41.18-82.83,28.32-41.94,55.28-47.47,101.39-27.37,36.66,15.98,72.98,32.81,110.07,47.7,44.97,18.05,66.94,4.97,72.1-42.9,2.08-19.29,3.19-39.56-.35-58.44-18.49-98.65-63.13-183.99-141.16-247.97-57.64-47.26-127.33-51.42-198.13-39.51-88.29,14.84-161.81,54.99-213.36,130.23-8.24,12.03-15.61,25.13-20.77,38.73-11.33,29.86-2.3,53.98,27.12,66.7,29.87,12.91,61.19,22.52,92.05,33.09,13.11,4.49,26.67,7.67,40,11.54,51.31,14.89,56.09,23.47,37.56,72.63-72.83,193.28-92.51,393.73-76.23,597.89,7.58,95.04,24.08,189.37,36.7,285.33h-644.53c-.95-8.7-2.08-17.32-2.82-25.98-13.38-157.03-24.89-314.25-41.25-470.96-4.49-42.98-22.5-84.75-36.09-126.5-9.07-27.87-22.35-54.35-31.85-82.1-13.53-39.51-5.12-61.76,31.65-81.44,40.29-21.57,82.39-39.82,122.25-62.11,22.48-12.57,44.74-27.79,62.36-46.33,36.51-38.4,35.48-118.46-29.41-145.74-63.18-26.56-124.2-58.27-187.51-84.49-169.5-70.2-316.3-13.45-394.5,152.29-40.02,84.82-53.24,176.46-58.32,268.87-2.98,54.13,35.68,83.31,88.95,69.26,52.04-13.73,102.96-31.66,154.55-47.16,14-4.21,28.53-6.98,43-9.2,45.23-6.95,79.58,10.69,105.01,47.74,36.01,52.44,55.13,111.41,61.63,173.74,15.85,152.12,7.02,303.45-18.54,454.09-3.16,18.61-13.41,18.69-27.43,18.69-175.73-.09-351.46.09-527.2.25-55.58.05-111.16.39-166.74.31-51.21-.08-66.79-16.14-66.77-67.9.06-246.03.44-492.05-.08-738.08-.15-72.12.66-144.09,20.9-213.89C93.71,216.77,262.69,66.57,515.22,15.49c206.11-41.69,398.14.31,566.18,131.76,31.88,24.94,59.72,55.03,87.99,81.41Z"/>
      <g>
        <path class="cls-2" d="M619.66,536.89c.62,1.68,1.28,3.35,1.83,5.06.31.95.84,1.47,1.81,1.75,6.97,2.07,13.36,5.23,18.79,10.14,4.74,4.28,8.01,9.51,9.96,15.58,3.55,11.03,1.42,21.43-3.49,31.52-.61,1.25-.84,2.23-.1,3.64,4.42,8.43,6.73,17.33,5.47,26.94-.93,7.1-3.98,13.23-8.61,18.58-5.5,6.36-12.65,10.21-20.49,12.89-.89.3-1.4.73-1.69,1.67-2.3,7.55-5.75,14.5-11.47,20.05-9.74,9.46-21.41,12.26-34.55,9.47-4.29-.91-8.36-2.47-12.26-4.46-1-.51-1.73-.28-2.62.18-8.2,4.26-16.81,6.8-26.17,5.7-9.59-1.13-17.38-5.59-23.52-12.98-3.98-4.79-6.97-10.13-8.8-16.09-.36-1.16-.98-1.73-2.13-2.06-5.59-1.62-10.8-4.06-15.47-7.56-8.73-6.54-13.66-15.25-14.63-26.12-.66-7.38,1.03-14.35,3.94-21.08.53-1.21,1.24-2.36,1.65-3.61.19-.58.07-1.44-.24-1.99-3.02-5.46-4.95-11.29-5.66-17.46-1.58-13.85,3.3-25.07,14.22-33.66,4.27-3.36,9.04-5.86,14.23-7.48,1.4-.44,2.15-1.19,2.6-2.61,2.25-7.2,5.7-13.77,11.07-19.13,8.29-8.29,18.39-11.68,30.03-10.47,5.94.62,11.5,2.52,16.82,5.18.9.45,1.62.46,2.51-.02,5.3-2.89,10.93-4.88,16.93-5.66,11.83-1.55,22.06,1.82,30.61,10.14,4.09,3.98,7.2,8.66,9.4,13.95ZM618.44,636.65c1.02-.44,2.07-.83,3.06-1.33,4.68-2.36,6.62-6.32,5.68-11.44-.59-3.2-1.75-6.19-3.55-8.87-2.38-3.54-4.89-7-7.44-10.42-.68-.91-.59-1.53,0-2.36,1.47-2.05,2.83-4.17,4.3-6.22,2.9-4.03,5.28-8.28,6.16-13.26.75-4.22-.79-7.84-4.28-10.23-3.88-2.65-8.24-3.88-12.8-4.6-3.08-.48-6.15-1.03-9.24-1.49-.73-.11-1.01-.46-1.12-1.14-.3-1.86-.66-3.7-.96-5.56-.95-5.86-2.15-11.62-5.86-16.49-2.15-2.83-4.94-4.27-8.54-3.97-3.27.27-6.3,1.44-9,3.16-4.07,2.58-7.97,5.43-11.89,8.25-.81.58-1.31.61-2.1.02-2.05-1.54-4.18-2.96-6.27-4.45-3.72-2.66-7.69-4.8-12.13-5.96-5.12-1.34-9.09.21-11.92,4.65-2.15,3.37-3.31,7.13-3.99,11.02-.61,3.45-1.07,6.93-1.54,10.4-.11.77-.41,1.09-1.19,1.2-1.69.24-3.36.61-5.05.89-5.5.9-10.95,1.96-15.81,4.94-3.24,1.99-5.28,4.7-5.2,8.67.08,3.56,1.22,6.86,3.07,9.8,2.59,4.11,5.48,8.04,8.28,12.02.45.63.62,1.09.12,1.8-1.88,2.65-3.67,5.36-5.53,8.02-2.55,3.66-4.47,7.58-5.19,12.02-.69,4.29.83,7.6,4.39,10.05,2.57,1.77,5.37,3.07,8.41,3.68,4.4.89,8.84,1.57,13.27,2.29.9.15,1.28.48,1.43,1.41.47,3.04,1.02,6.07,1.59,9.09.76,4.02,2.06,7.83,4.19,11.36,2.75,4.56,6.93,6.47,11.99,4.95,2.68-.81,5.35-1.92,7.72-3.39,3.7-2.29,7.15-4.98,10.68-7.55.77-.56,1.34-.67,2.14-.06,2.02,1.51,4.1,2.94,6.16,4.39,3.87,2.72,7.93,5.05,12.6,6.13,4.48,1.04,8.54-.23,10.87-3.82,1.38-2.13,2.66-4.46,3.31-6.89,1.12-4.15,1.71-8.44,2.54-12.67.25-1.27.18-2.94.96-3.67.82-.77,2.49-.63,3.79-.89,4.68-.94,9.5-1.34,13.88-3.49Z"/>
        <path class="cls-2" d="M818.05,580.31c-2.22.81-3.78,1.29-5.24,1.97-.55.26-1.07.94-1.26,1.54-2.01,6.39-4.83,12.36-9.2,17.47-7.75,9.06-17.65,13.36-29.56,12.95-6.92-.24-13.34-2.4-19.5-5.41-.93-.45-1.6-.39-2.48.07-7.88,4.06-16.13,6.68-25.13,5.9-11.01-.96-19.63-6.2-26.22-14.96-3.32-4.41-5.77-9.28-7.41-14.55-.28-.91-.77-1.39-1.71-1.66-6.34-1.86-12.33-4.52-17.34-8.87-12.04-10.42-15.63-23.54-11.62-38.77.93-3.52,2.57-6.86,4.01-10.24.44-1.03.4-1.81-.12-2.75-3.17-5.76-5.14-11.91-5.77-18.47-.71-7.39.6-14.36,4.24-20.89,3.89-6.99,9.54-12.12,16.6-15.72,2.81-1.43,5.81-2.47,8.68-3.79.56-.26,1.15-.89,1.34-1.47,2.53-7.75,6.1-14.92,12.11-20.56,9.43-8.84,20.62-11.64,33.22-9.14,4.65.92,9.02,2.62,13.27,4.68.51.25,1.33.17,1.89-.05,3.74-1.45,7.35-3.31,11.18-4.43,11.18-3.27,21.84-2.05,31.58,4.66,8.03,5.53,13,13.31,16.02,22.43.49,1.48,1.18,2.3,2.75,2.75,6.92,1.98,13.14,5.3,18.44,10.22,2.9,2.7,5.27,5.79,7.11,9.33,3,5.78,4.5,11.87,4.23,18.39-.19,4.65-1.17,9.15-2.81,13.49-.83,2.19-1.81,4.34-2.83,6.45-.38.79-.39,1.4.03,2.15,2.75,4.89,4.56,10.12,5.53,15.63,1.15,6.53.82,13-1.55,19.19-3.11,8.12-8.48,14.48-16,18.93-2.31,1.37-4.73,2.56-6.47,3.49ZM806.82,555.72c1.02-.44,2.07-.82,3.06-1.33,4.74-2.44,6.6-6.35,5.62-11.57-.7-3.72-2.3-7.07-4.39-10.17-2.08-3.08-4.33-6.04-6.56-9.01-.61-.81-.65-1.43-.05-2.28,1.65-2.29,3.19-4.65,4.81-6.96,2.83-4.03,5.15-8.27,5.78-13.26.4-3.16-.35-5.95-2.71-8.18-2.78-2.63-6.18-4.19-9.83-5-4.25-.95-8.58-1.55-12.87-2.28-1.9-.32-1.96-.35-2.28-2.29-.42-2.49-.8-4.98-1.26-7.46-.88-4.74-2.27-9.3-5.13-13.28-2.51-3.5-5.86-4.99-10.14-4.15-3.36.66-6.46,2.05-9.29,3.91-3.31,2.19-6.5,4.57-9.7,6.92-1.57,1.15-1.53,1.22-3.16.07-1.43-1.01-2.85-2.03-4.27-3.06-3.86-2.78-7.88-5.27-12.47-6.72-5.95-1.88-10.4-.28-13.51,5.1-1.79,3.1-2.91,6.47-3.51,9.99-.59,3.54-1.08,7.09-1.59,10.65-.1.71-.28,1.15-1.12,1.27-2.49.37-4.97.85-7.46,1.28-4.7.81-9.26,2.01-13.42,4.48-3.96,2.35-5.82,5.99-5.14,10.3.52,3.25,1.64,6.33,3.41,9.06,2.34,3.62,4.91,7.09,7.47,10.55.81,1.09.97,1.91.09,3.03-1.16,1.48-2.14,3.1-3.23,4.62-3.02,4.22-5.78,8.55-6.92,13.75-1.06,4.81.45,8.73,4.57,11.38,2.84,1.82,5.91,3.09,9.23,3.7,3.91.71,7.83,1.35,11.76,1.95,1.08.17,1.64.57,1.8,1.72.28,2.12.75,4.21,1.08,6.32.85,5.37,2.24,10.54,5.47,15.04,2.32,3.22,5.42,4.74,9.43,4.14,3.58-.53,6.83-2.01,9.82-3.92,3.56-2.28,6.92-4.87,10.33-7.37.78-.57,1.35-.64,2.15-.05,2.13,1.57,4.33,3.05,6.48,4.59,3.83,2.73,7.9,4.98,12.53,5.96,4.18.88,7.79-.09,10.5-3.64,1.82-2.39,3.1-5.08,3.74-7.95.98-4.33,1.6-8.73,2.37-13.1.48-2.73-.09-2.5,2.85-2.96.63-.1,1.26-.22,1.89-.35,4.64-.95,9.42-1.32,13.75-3.47Z"/>
      </g>
      <g>
        <path class="cls-2" d="M1732.72,397.28c-.6,1.29-1.16,2.59-1.81,3.86-.36.71-.35,1.29.03,1.99,2.74,5.06,4.55,10.41,4.84,16.21.26,5.05-.84,9.81-3.15,14.3-4.19,8.16-11.21,12.8-19.61,15.69-1.04.36-1.72.78-2.1,1.98-2.25,7.2-5.94,13.48-12.03,18.15-4.49,3.45-9.64,5.18-15.22,5.59-6.64.48-12.8-1.37-18.69-4.26-.67-.33-1.19-.38-1.88,0-5.51,2.94-11.34,4.9-17.65,4.8-10.75-.16-18.86-5.13-24.66-14.04-1.89-2.91-3.3-6.07-4.37-9.36-.27-.85-.81-1.12-1.57-1.36-6.98-2.21-13.22-5.61-17.84-11.46-4.74-6-6.6-12.86-5.9-20.44.45-4.91,1.77-9.58,4.08-13.94.45-.85.42-1.52-.03-2.35-2.23-4.04-3.77-8.32-4.43-12.9-1.22-8.55.89-16.19,6.44-22.82,3.76-4.5,8.61-7.46,14.01-9.59.98-.39,2.02-.63,2.95-1.09.43-.22.84-.77.98-1.25,1.36-4.75,3.55-9.1,6.61-12.95,6.87-8.64,15.89-12.19,26.81-10.89,4.27.51,8.34,1.78,12.16,3.78,1.03.54,1.87.54,2.92,0,5.29-2.77,10.9-4.52,16.91-4.52,9.29,0,16.84,3.76,22.68,10.95,2.98,3.67,5.03,7.86,6.52,12.32.25.75.65,1.17,1.42,1.39,4.59,1.35,8.85,3.39,12.66,6.31,7.49,5.76,11.34,13.38,11.46,22.82.06,4.52-.82,8.89-2.55,13.08ZM1676.17,452.46c.82.33,1.62.7,2.46.97,3.94,1.3,7.25.17,9.59-3.22,1.46-2.12,2.49-4.45,2.98-6.96.65-3.32,1.18-6.66,1.67-10.01.13-.89.52-1.19,1.32-1.32,1.97-.33,3.92-.75,5.89-1.07,3.88-.63,7.59-1.68,10.87-3.97,2.78-1.95,3.95-4.83,3.33-8.13-.69-3.66-2.44-6.79-4.59-9.74-1.45-2-2.87-4.02-4.34-6.01-.35-.47-.31-.82.01-1.26.87-1.21,1.7-2.44,2.57-3.65,2.75-3.81,5.31-7.71,5.96-12.52.38-2.79-.37-5.16-2.56-7.01-1.99-1.68-4.33-2.72-6.81-3.27-3.73-.83-7.51-1.42-11.28-2.04-.78-.13-1.08-.39-1.19-1.16-.29-2.01-.68-4-1.01-6-.59-3.57-1.62-6.99-3.46-10.13-2.11-3.61-5.21-4.97-9.28-4.07-3.09.68-5.85,2.14-8.41,3.94-2.27,1.59-4.48,3.28-6.69,4.96-.49.37-.84.38-1.34,0-1.08-.81-2.23-1.54-3.33-2.33-3.58-2.58-7.23-5.04-11.62-6.09-2.93-.7-5.59-.33-7.77,1.94-1.95,2.04-3.16,4.52-3.77,7.21-.85,3.76-1.43,7.57-2.09,11.37-.11.6-.26.96-.95,1.07-2.54.43-5.06.94-7.59,1.39-3.48.62-6.75,1.74-9.64,3.83-2.79,2.01-3.79,4.72-3.17,8.09.45,2.43,1.29,4.73,2.65,6.77,1.96,2.96,4.07,5.83,6.15,8.71.42.59.45.99,0,1.59-1.44,1.97-2.83,3.97-4.2,5.98-1.82,2.68-3.23,5.54-4.01,8.71-1.01,4.09.26,7.51,3.95,9.49,1.95,1.05,4.07,1.92,6.23,2.43,3.35.79,6.79,1.22,10.21,1.75.74.12,1.12.38,1.24,1.17.28,1.98.65,3.94.99,5.91.64,3.69,1.62,7.27,3.62,10.49,1.92,3.09,4.91,4.66,8.23,3.95,1.96-.42,3.99-1.01,5.71-2,2.95-1.7,5.68-3.77,8.52-5.67.85-.57,1.75-1.54,2.59-1.51.89.03,1.75,1.04,2.62,1.62,3.15,2.1,6.07,4.57,9.73,5.82Z"/>
        <path class="cls-2" d="M1819.51,532.7c-1.7-.79-2.84-1.4-4.04-1.83-.45-.16-1.13-.07-1.57.16-4.7,2.45-9.63,4.22-14.94,4.63-9.41.74-17.37-2.4-23.8-9.3-3.74-4.01-6.13-8.82-7.89-13.95-.27-.78-.68-1.11-1.43-1.35-6.69-2.14-12.77-5.29-17.38-10.77-5.63-6.7-7.52-14.47-6.31-23.06.61-4.33,1.97-8.43,4-12.3.35-.67.35-1.21-.03-1.89-2.51-4.59-4.37-9.44-4.75-14.68-.91-12.58,4.43-21.94,15.21-28.22,2.49-1.45,5.28-2.4,7.98-3.49.82-.33,1.24-.79,1.48-1.61,1.45-5,3.79-9.55,7.11-13.57,3.74-4.54,8.38-7.7,14.07-9.32,6.09-1.73,12.13-1.44,18.1.49,2.37.77,4.64,1.87,6.98,2.74.46.17,1.14.15,1.57-.07,5.76-2.92,11.77-4.94,18.29-4.73,10.23.33,18.07,5.03,23.73,13.48,2.09,3.12,3.58,6.52,4.81,10.05.15.42.65.84,1.09,1.03,2.91,1.28,5.97,2.26,8.74,3.78,8.1,4.43,13.38,11.08,15.08,20.3,1.4,7.6-.17,14.74-3.59,21.54-.55,1.1-.63,1.95,0,3.08,2.76,4.99,4.39,10.33,4.6,16.05.11,3.14-.29,6.2-1.24,9.2-1.56,4.92-4.13,9.17-7.93,12.67-2.71,2.5-5.78,4.47-9.13,5.98-1.69.76-3.44,1.41-5.2,2.03-.65.23-1,.56-1.19,1.22-1.2,4.28-3.11,8.22-5.66,11.85-3.01,4.3-6.82,7.74-11.62,9.87-6.29,2.81-12.86,3.36-19.56,1.64-2.06-.53-4.08-1.22-5.58-1.66ZM1827,512.64c.82.33,1.62.7,2.46.97,4.02,1.29,7.25.14,9.63-3.33,1.69-2.48,2.67-5.25,3.24-8.15.56-2.89.96-5.81,1.37-8.72.11-.8.44-1.17,1.25-1.3,2.2-.36,4.39-.82,6.59-1.2,3.84-.67,7.52-1.75,10.67-4.19,2-1.55,3.14-3.53,3.07-6.1-.08-3.03-1.11-5.8-2.71-8.31-1.85-2.91-3.94-5.67-5.93-8.48-.88-1.24-.9-1.29,0-2.56,1.16-1.63,2.34-3.23,3.47-4.88,2.17-3.15,3.93-6.48,4.57-10.31.56-3.36-.49-6.07-3.36-8-2.25-1.51-4.76-2.47-7.39-3.01-3.08-.63-6.2-1.08-9.31-1.56-1.52-.23-1.54-.17-1.81-1.73-.24-1.37-.46-2.74-.68-4.1-.61-3.72-1.46-7.36-3.22-10.75-2.28-4.39-5.67-5.98-10.42-4.71-2.74.73-5.26,1.99-7.56,3.63-2.31,1.65-4.58,3.37-6.85,5.07-.45.34-.8.49-1.34.09-1.6-1.19-3.26-2.31-4.89-3.46-3.09-2.18-6.31-4.06-10.03-5-3.53-.9-6.62.09-8.65,2.89-1.53,2.11-2.62,4.46-3.17,6.98-.72,3.33-1.22,6.72-1.72,10.1-.16,1.07-.52,1.61-1.65,1.75-1.48.18-2.93.54-4.4.78-4.06.67-8.03,1.55-11.58,3.82-3.28,2.1-4.64,5.14-3.81,8.93.57,2.61,1.58,5.04,3.1,7.24,1.79,2.59,3.63,5.14,5.5,7.68.51.7.6,1.24.04,1.97-1.03,1.34-1.94,2.77-2.93,4.14-2.53,3.48-4.65,7.16-5.36,11.48-.51,3.1.38,5.69,2.96,7.6,2.3,1.71,4.95,2.7,7.69,3.3,3.27.72,6.6,1.15,9.91,1.65.75.12,1.12.39,1.23,1.18.31,2.07.71,4.14,1.06,6.2.61,3.67,1.63,7.21,3.68,10.36,1.85,2.83,4.42,4.31,7.91,3.84,2.36-.32,4.58-1.11,6.55-2.35,2.97-1.88,5.79-3.99,8.66-6.01,1.8-1.26,1.35-1.45,3.25-.06.41.3.83.58,1.25.87,3.13,2.07,6.02,4.53,9.65,5.76Z"/>
      </g>
    </g>
  </g>
</svg>