<?xml version="1.0" encoding="UTF-8"?>
<svg id="Layer_2" data-name="Layer 2" xmlns="http://www.w3.org/2000/svg" viewBox="0 0 2365.44 2074.45">
  <defs>
    <style>
      .cls-1 {
        fill: #fff;
      }

      .cls-2 {
        fill: #a5ba42;
      }
    </style>
  </defs>
  <g id="Layer_1-2" data-name="Layer 1">
    <g>
      <g>
        <path class="cls-1" d="M38.46,1552.31c33.84,32.3,66.66,65.44,98.45,99.41,31.92-33.97,64.8-67.11,98.64-99.41h38.84v267.85h-43.26v-200.16c-21.15,20.77-41.98,42.3-62.49,64.61,10.12,14.61,18.39,28.72,24.8,42.3,13.33,33.33,10.96,58.01-7.11,74.03-14.61,12.69-31.09,19.04-49.42,19.04s-34.74-6.35-49.22-19.04c-18.07-16.02-20.45-40.7-7.11-74.03,6.41-13.59,14.68-27.69,24.8-42.3-20.51-22.3-41.34-43.84-62.49-64.61v200.16H0v-267.85h38.46ZM124.02,1772.86c3.72,3.21,8.04,4.81,12.98,4.81s9.26-1.6,12.98-4.81c5.51-4.61,5.06-14.61-1.35-30-3.21-6.79-7.11-13.91-11.73-21.34-4.49,7.44-8.33,14.55-11.54,21.34-6.41,15.38-6.86,25.38-1.35,30Z"/>
        <path class="cls-1" d="M335.53,1552.31v267.85h-41.92v-267.85h41.92Z"/>
        <path class="cls-1" d="M395.71,1552.31l133.06,190.93v-190.93h42.11v267.85h-39.61l-134.6-193.24v193.24h-41.92v-267.85h40.96Z"/>
        <path class="cls-1" d="M691.25,1552.31c28.97,0,52.71,7.66,71.24,22.98,18.52,15.32,31.82,34.58,39.9,57.78,11.92,35.38,11.92,70.83,0,106.33-8.08,23.2-21.38,42.46-39.9,57.78-18.53,15.32-42.27,22.98-71.24,22.98h-101.14v-267.85h101.14ZM736.72,1609.71c-11.86-9.93-27.02-14.9-45.47-14.9h-59.22v182.86h59.22c18.46,0,33.62-4.97,45.47-14.9,11.86-9.93,20.41-22.46,25.67-37.59,8.85-26.02,8.85-52.04,0-78.07-5.26-15-13.81-27.46-25.67-37.4Z"/>
        <path class="cls-1" d="M961.21,1605.19c-10.64-10.77-26.02-16.21-46.15-16.34-1.67.13-3.53.26-5.58.38-7.69.77-15.03,3.17-22.02,7.21-6.99,4.04-11.89,9.9-14.71,17.59-2.69,10.13.45,18.14,9.42,24.04,14.87,9.61,30.19,16.86,45.96,21.73,22.94,5.9,44.93,18.72,65.95,38.46,16.28,17.69,22.82,38.46,19.61,62.3-2.44,15.51-9.68,29.03-21.73,40.57-18.46,15.51-39.8,23.71-64.03,24.61-16.67.9-32.56-1.48-47.69-7.11-37.18-16.02-57.17-41.98-59.99-77.87h42.88c2.18,17.31,12.95,30.12,32.3,38.46,9.23,3.33,19.29,4.68,30.19,4.04,6.28-.26,12.85-1.41,19.71-3.46,6.86-2.05,12.72-5.19,17.59-9.42,5-4.87,8.01-10.38,9.04-16.54,1.28-10.25-1.67-19.1-8.85-26.53-15.13-13.72-34.23-24.23-57.3-31.53-17.56-6.02-33.59-13.65-48.07-22.88-12.44-8.97-20.77-19.55-25-31.73-4.61-13.59-4.68-26.98-.19-40.19,13.46-32.17,37.81-50.12,73.07-53.84,2.69-.26,5.45-.45,8.27-.58,32.69.13,58.19,9.42,76.53,27.88,16.28,16.15,26.28,34.61,30,55.38h-43.65c-2.95-9.23-8.14-17.43-15.57-24.61Z"/>
        <path class="cls-1" d="M1192.72,1665.18v-112.87h41.92v267.85h-41.92v-113.06h-111.14v113.06h-41.92v-267.85h41.92v112.87h111.14Z"/>
        <path class="cls-1" d="M1364.61,1552.31c26.66,0,49.48,9.49,68.45,28.46,18.84,20.77,28.27,43.52,28.27,68.26s-9.42,47.49-28.27,68.26c-8.97,8.97-19.42,15.96-31.34,20.96l53.84,81.91h-50.18l-49.03-74.41h-60.38v74.41h-42.11v-267.85h110.75ZM1295.97,1594.8v108.45h68.64c14.87,0,27.62-5.32,38.26-15.96,10.64-11.66,15.96-24.42,15.96-38.26s-5.32-26.6-15.96-38.26c-10.64-10.64-23.4-15.96-38.26-15.96h-68.64Z"/>
        <path class="cls-2" d="M1656.5,1553.66c5.64,3.97,10.96,9.04,15.96,15.19,7.82-.77,15.19-.58,22.11.58,12.18,2.05,22.43,7.18,30.76,15.38,8.08,8.33,13.2,18.59,15.38,30.76,1.15,6.92,1.28,14.29.38,22.11,6.15,4.87,11.28,10.19,15.38,15.96,7.18,10,10.77,20.83,10.77,32.5s-3.59,22.5-10.77,32.5c-4.1,5.77-9.23,11.09-15.38,15.96.89,7.82.7,15.19-.58,22.11-2.05,12.18-7.11,22.43-15.19,30.76h-.19c-8.33,8.2-18.53,13.33-30.57,15.38-6.92,1.15-14.3,1.35-22.11.58-5,6.15-10.32,11.22-15.96,15.19-10.13,7.18-20.96,10.77-32.5,10.77s-22.56-3.59-32.69-10.77c-5.64-3.97-10.96-9.04-15.96-15.19-7.82.77-15.19.58-22.11-.58-12.18-2.05-22.43-7.18-30.76-15.38-8.08-8.33-13.14-18.59-15.19-30.76-1.28-6.92-1.48-14.29-.58-22.11-6.15-4.87-11.28-10.19-15.38-15.96-7.18-10-10.77-20.83-10.77-32.5s3.59-22.5,10.77-32.5c4.1-5.77,9.23-11.09,15.38-15.96-.9-7.82-.71-15.19.58-22.11,2.05-12.18,7.11-22.43,15.19-30.76h.19c8.33-8.2,18.52-13.33,30.57-15.38,6.92-1.15,14.29-1.35,22.11-.58,5-6.15,10.38-11.22,16.15-15.19,10-7.18,20.83-10.77,32.5-10.77s22.37,3.59,32.5,10.77ZM1624,1582.88c-3.21,0-6.41,1.15-9.61,3.46-4.61,3.33-8.97,8.27-13.08,14.81l-7.5,12.31-14.04-3.27c-7.57-1.79-14.17-2.24-19.8-1.35-3.85.64-6.86,2.05-9.04,4.23-2.18,2.31-3.59,5.38-4.23,9.23-1.03,5.51-.64,12.11,1.15,19.8l3.27,13.84-12.11,7.69c-6.67,3.97-11.6,8.33-14.81,13.08-2.31,3.21-3.46,6.35-3.46,9.42s1.15,6.22,3.46,9.42c3.2,4.74,8.14,9.1,14.81,13.08l12.11,7.69-3.27,13.84c-1.8,7.69-2.18,14.29-1.15,19.8.64,3.85,2.05,6.92,4.23,9.23,2.18,2.18,5.19,3.59,9.04,4.23,5.64.9,12.24.45,19.8-1.35l14.04-3.27,7.5,12.31c4.1,6.54,8.46,11.47,13.08,14.81,3.2,2.31,6.41,3.46,9.61,3.46s6.22-1.15,9.42-3.46c4.61-3.33,8.97-8.27,13.07-14.81l7.5-12.31,14.04,3.27c7.56,1.8,14.16,2.24,19.8,1.35,3.85-.64,6.86-2.05,9.04-4.23,2.18-2.31,3.59-5.38,4.23-9.23,1.02-5.51.64-12.11-1.15-19.8l-3.27-13.84,12.11-7.69c6.66-3.97,11.6-8.33,14.81-13.08,2.31-3.2,3.46-6.35,3.46-9.42s-1.15-6.22-3.46-9.42c-3.21-4.74-8.14-9.1-14.81-13.08l-12.11-7.69,3.27-13.84c1.79-7.69,2.18-14.29,1.15-19.8-.64-3.85-2.05-6.92-4.23-9.23-2.18-2.18-5.19-3.59-9.04-4.23-5.64-.9-12.24-.45-19.8,1.35l-14.04,3.27-7.5-12.31c-4.1-6.54-8.46-11.47-13.07-14.81-3.21-2.31-6.35-3.46-9.42-3.46Z"/>
        <path class="cls-2" d="M1962.41,1553.66c5.64,3.97,10.96,9.04,15.96,15.19,7.82-.77,15.19-.58,22.11.58,12.18,2.05,22.43,7.18,30.76,15.38,8.08,8.33,13.2,18.59,15.38,30.76,1.15,6.92,1.28,14.29.38,22.11,6.15,4.87,11.28,10.19,15.38,15.96,7.18,10,10.77,20.83,10.77,32.5s-3.59,22.5-10.77,32.5c-4.1,5.77-9.23,11.09-15.38,15.96.89,7.82.7,15.19-.58,22.11-2.05,12.18-7.11,22.43-15.19,30.76h-.19c-8.33,8.2-18.53,13.33-30.57,15.38-6.92,1.15-14.3,1.35-22.11.58-5,6.15-10.32,11.22-15.96,15.19-10.13,7.18-20.96,10.77-32.5,10.77s-22.56-3.59-32.69-10.77c-5.64-3.97-10.96-9.04-15.96-15.19-7.82.77-15.19.58-22.11-.58-12.18-2.05-22.43-7.18-30.76-15.38-8.08-8.33-13.14-18.59-15.19-30.76-1.28-6.92-1.48-14.29-.58-22.11-6.15-4.87-11.28-10.19-15.38-15.96-7.18-10-10.77-20.83-10.77-32.5s3.59-22.5,10.77-32.5c4.1-5.77,9.23-11.09,15.38-15.96-.9-7.82-.71-15.19.58-22.11,2.05-12.18,7.11-22.43,15.19-30.76h.19c8.33-8.2,18.52-13.33,30.57-15.38,6.92-1.15,14.29-1.35,22.11-.58,5-6.15,10.38-11.22,16.15-15.19,10-7.18,20.83-10.77,32.5-10.77s22.37,3.59,32.5,10.77ZM1929.92,1582.88c-3.21,0-6.41,1.15-9.61,3.46-4.61,3.33-8.97,8.27-13.08,14.81l-7.5,12.31-14.04-3.27c-7.57-1.79-14.17-2.24-19.8-1.35-3.85.64-6.86,2.05-9.04,4.23-2.18,2.31-3.59,5.38-4.23,9.23-1.03,5.51-.64,12.11,1.15,19.8l3.27,13.84-12.11,7.69c-6.67,3.97-11.6,8.33-14.81,13.08-2.31,3.21-3.46,6.35-3.46,9.42s1.15,6.22,3.46,9.42c3.2,4.74,8.14,9.1,14.81,13.08l12.11,7.69-3.27,13.84c-1.8,7.69-2.18,14.29-1.15,19.8.64,3.85,2.05,6.92,4.23,9.23,2.18,2.18,5.19,3.59,9.04,4.23,5.64.9,12.24.45,19.8-1.35l14.04-3.27,7.5,12.31c4.1,6.54,8.46,11.47,13.08,14.81,3.2,2.31,6.41,3.46,9.61,3.46s6.22-1.15,9.42-3.46c4.61-3.33,8.97-8.27,13.07-14.81l7.5-12.31,14.04,3.27c7.56,1.8,14.16,2.24,19.8,1.35,3.85-.64,6.86-2.05,9.04-4.23,2.18-2.31,3.59-5.38,4.23-9.23,1.02-5.51.64-12.11-1.15-19.8l-3.27-13.84,12.11-7.69c6.66-3.97,11.6-8.33,14.81-13.08,2.31-3.2,3.46-6.35,3.46-9.42s-1.15-6.22-3.46-9.42c-3.21-4.74-8.14-9.1-14.81-13.08l-12.11-7.69,3.27-13.84c1.79-7.69,2.18-14.29,1.15-19.8-.64-3.85-2.05-6.92-4.23-9.23-2.18-2.18-5.19-3.59-9.04-4.23-5.64-.9-12.24-.45-19.8,1.35l-14.04,3.27-7.5-12.31c-4.1-6.54-8.46-11.47-13.07-14.81-3.21-2.31-6.35-3.46-9.42-3.46Z"/>
        <path class="cls-1" d="M2133.74,1552.31l95.18,203.43,94.99-203.43h41.53v267.85h-41.92v-167.67l-78.45,167.67h-32.5l-78.26-167.67v167.67h-41.92v-267.85h41.34Z"/>
      </g>
      <g>
        <path class="cls-1" d="M1535.18,2040.29c3.87,3.92,5.81,8.64,5.81,14.14s-1.94,10.22-5.81,14.14c-3.87,3.92-8.61,5.88-14.21,5.88s-10.19-1.96-14.06-5.88c-3.87-3.92-5.81-8.64-5.81-14.14s1.93-10.21,5.81-14.14c3.87-3.92,8.56-5.88,14.06-5.88s10.34,1.96,14.21,5.88Z"/>
        <path class="cls-1" d="M1640.19,1951.11c-5.3-4.38-12.36-7.05-21.17-8.02-8.82-.97-16.08.59-21.78,4.66-3.57,3.26-4.23,6.52-1.99,9.78,2.24,3.26,5.2,5.81,8.87,7.64,8.46,4.18,17.32,7.13,26.6,8.87,8.25,1.63,16.15,4.13,23.69,7.49,11.21,5.71,19,13.09,23.38,22.16,8.76,20.48,4.79,38.01-11.92,52.58-10.7,8.36-23.21,13.12-37.52,14.29-14.32,1.17-27.54-1.1-39.66-6.8-19.56-10.09-30.37-26.08-32.4-47.99h33.93c1.32,8.15,5.71,14.01,13.14,17.58,6.93,3.16,14.42,4.38,22.47,3.67,7.74-.81,14.01-3.11,18.8-6.88,3.77-3.36,4.97-6.7,3.59-10.01-1.38-3.31-4.2-6.04-8.48-8.18-6.93-3.06-14.32-5.4-22.16-7.03-9.58-1.73-19.46-5.09-29.65-10.09-14.88-8.66-23.87-20.12-26.98-34.39-3.11-14.26,1.96-27.26,15.21-38.98,12.43-9.27,27.05-13.3,43.87-12.07s31.08,6.78,42.8,16.66c10.8,9.88,17.07,22.62,18.8,38.21l-34.08.15c-1.22-5.4-3.67-9.83-7.34-13.3Z"/>
        <path class="cls-1" d="M1779.58,1949.12h-39.59v41.42c0,12.74,4.48,23.59,13.45,32.56,7.64,7.44,16.35,11.82,26.14,13.14v33.93c-18.75-1.43-35.41-9.12-49.98-23.08-15.59-15.69-23.38-34.54-23.38-56.55v-111.12h33.32v36.22h40.05v33.47Z"/>
        <path class="cls-1" d="M1794.86,1990.54v-74.89h33.78v74.89c0,12.74,4.53,23.59,13.6,32.56,9.98,9.07,20.84,13.6,32.56,13.6s22.57-4.53,32.56-13.6c6.52-6.52,10.75-14.47,12.69-23.84v-83.61h33.32v152.08h-33.32v-11.31c-16.1,10.7-33.47,15.28-52.12,13.76-18.65-1.53-35.15-9.22-49.52-23.08-15.69-15.69-23.54-34.54-23.54-56.55Z"/>
        <path class="cls-1" d="M2130.97,1854.82v212.91h-33.47v-12.84c-13.96,10.39-29.86,15.59-47.69,15.59-22.42,0-41.55-7.92-57.39-23.77-15.85-15.84-23.77-34.98-23.77-57.39s7.92-41.39,23.77-57.24c15.84-15.84,34.98-23.77,57.39-23.77,17.83,0,33.73,5.2,47.69,15.59v-69.09h33.47ZM2097.5,1985.19c-1.33-12.53-6.47-22.95-15.44-31.26-8.97-8.3-19.72-12.46-32.25-12.46-13.25,0-24.56,4.69-33.93,14.06-9.38,9.38-14.06,20.63-14.06,33.78s4.69,24.56,14.06,33.93c9.37,9.38,20.68,14.06,33.93,14.06,12.53,0,23.28-4.15,32.25-12.46,8.97-8.3,14.11-18.72,15.44-31.26v-8.41Z"/>
        <path class="cls-1" d="M2181.87,1860.93c4.07,4.08,6.11,9.02,6.11,14.83s-2.04,10.6-6.11,14.67-8.97,6.11-14.67,6.11-10.75-2.04-14.83-6.11c-4.08-4.07-6.11-8.97-6.11-14.67s2.04-10.75,6.11-14.83c4.07-4.07,9.02-6.11,14.83-6.11s10.6,2.04,14.67,6.11ZM2183.85,2067.73h-33.47v-152.08h33.47v152.08Z"/>
        <path class="cls-1" d="M2227.03,2046.71c-15.85-15.84-23.77-34.98-23.77-57.39s7.92-41.39,23.77-57.24c15.84-15.84,34.98-23.77,57.39-23.77s41.52,7.92,57.32,23.77c15.79,15.85,23.69,34.93,23.69,57.24s-7.9,41.55-23.69,57.39c-15.8,15.85-34.9,23.77-57.32,23.77s-41.55-7.92-57.39-23.77ZM2318.36,2023.25c9.37-9.37,14.06-20.68,14.06-33.93s-4.69-24.4-14.06-33.78c-9.38-9.37-20.69-14.06-33.93-14.06s-24.56,4.69-33.93,14.06c-9.38,9.38-14.06,20.63-14.06,33.78s4.69,24.56,14.06,33.93c9.37,9.38,20.68,14.06,33.93,14.06s24.55-4.69,33.93-14.06Z"/>
      </g>
    </g>
    <path class="cls-1" d="M2365.25,636.53c-.3-151.44-46.74-287.23-144.13-404.32-218.22-262.35-648.36-309.87-924.84-101.22-32.86,24.8-62.9,53.33-93.27,81-11.96,10.89-30.33,10.59-41.91-.71-21.73-21.21-43.83-43.34-68.28-62.47C923.01,15.96,728.95-26.48,520.66,15.65,265.47,67.27,94.7,219.06,21.14,472.72.68,543.25-.14,615.98.01,688.86c.53,248.62.14,497.25.08,745.88-.01,52.31,15.73,68.54,67.48,68.62,56.17.09,112.33-.26,168.5-.31,177.59-.16,355.18-.34,532.77-.25,14.17,0,24.53-.08,27.72-18.88,25.83-152.22,34.76-305.16,18.74-458.88-6.56-63-25.89-122.59-62.28-175.58-25.71-37.44-60.41-55.26-106.12-48.24-14.63,2.25-29.31,5.05-43.46,9.3-52.13,15.66-103.59,33.78-156.19,47.66-53.82,14.2-92.89-15.29-89.88-69.99,5.14-93.39,18.5-186,58.94-271.71,79.03-167.49,227.38-224.84,398.67-153.9,63.97,26.5,125.64,58.54,189.49,85.38,65.58,27.57,66.62,108.47,29.72,147.28-17.81,18.73-40.3,34.11-63.02,46.81-40.28,22.52-82.83,40.97-123.54,62.77-37.15,19.89-45.65,42.37-31.98,82.3,9.6,28.04,23.02,54.81,32.18,82.97,13.73,42.19,31.94,84.4,36.47,127.83,16.53,158.37,28.16,317.25,41.68,475.94v.09c1.28,14.8,13.65,26.16,28.5,26.16h592.58c17.54,0,31.05-15.51,28.63-32.88-11.95-85.69-25.83-170.3-32.62-255.47-16.45-206.32,3.44-408.89,77.04-604.21,18.72-49.68,13.89-58.35-37.96-73.4-13.47-3.91-27.17-7.12-40.43-11.66-31.18-10.68-62.83-20.39-93.02-33.44-29.73-12.85-38.85-37.23-27.41-67.4,5.21-13.74,12.65-26.97,20.99-39.14,52.09-76.04,126.39-116.61,215.61-131.61,71.55-12.03,141.98-7.83,200.23,39.93,78.85,64.65,123.96,150.9,142.65,250.59,3.57,19.07,2.45,39.56.35,59.05-5.21,48.38-27.42,61.6-72.86,43.36-37.49-15.05-74.19-32.06-111.23-48.2-46.6-20.31-73.84-14.73-102.47,27.66-17.31,25.64-31.15,54.51-41.61,83.7-30.58,85.34-33.13,174.61-31.49,264.05,3.19,174.48,38.81,344,78.75,512.88,3.15,13.32,8.26,19.32,22.77,19.3,189.15-.24,378.3.27,567.46-.09,35.55-.07,52.33-18.11,54.19-53.83.34-6.59.2-13.21.2-19.82.21-264.32.94-528.64.41-792.95ZM2304.48,1197.75c-.11,77.23-.21,154.45-.27,231.68,0,1.68,0,3.36.01,5.05v.08c.02,4.38-3.52,7.95-7.91,7.96-43.5.07-89.74.11-144.13.11-48.72,0-97.43-.03-146.15-.06-48.73-.03-97.47-.06-146.2-.06-17.8,0-34.78,0-51.09.01-21.08,0-39.39-14.54-44.07-35.1-31.77-139.35-59.81-286.35-62.58-437.5-1.39-75.72-.48-163.14,27.95-242.49,9.48-26.46,21.18-50.08,34.78-70.22,4.74-7.01,7.99-10.49,9.73-12.08.04-.03.08-.05.13-.04,2.65.43,8.23,1.8,18.14,6.11,11.13,4.85,22.51,9.9,33.51,14.79,25.72,11.42,52.31,23.23,79.36,34.09,20.46,8.22,38.76,12.21,55.94,12.21,20.75,0,89.27-7.6,99.8-105.34,2.27-21.04,4.2-48.78-1.04-76.72-22.34-119.18-77.45-215.51-163.8-286.31-48.06-39.4-107.13-59.38-175.6-59.38-23,0-46.92,2.14-73.13,6.55-110.93,18.65-196.92,71.52-255.58,157.13-11.84,17.28-21.15,34.74-27.65,51.89-23.13,60.95,1,119.05,60.04,144.57,25.73,11.12,51.6,19.77,76.62,28.13,6.87,2.29,13.97,4.67,20.82,7.01,10.56,3.62,20.56,6.32,30.24,8.94,3.09.84,6.06,1.64,8.94,2.45.1.03.16.14.12.24-71.25,191.56-97.01,396.1-78.75,625.09,5.42,67.95,15.27,135.91,24.8,201.63h0c1.63,11.21-7.07,21.26-18.4,21.26h-466.55c-21.8,0-39.96-16.73-41.76-38.45-1.8-21.73-3.57-43.38-5.31-64.67-9.25-112.96-18.81-229.77-30.81-344.73-4.18-40.06-16.86-76.2-29.13-111.15-3.55-10.11-6.9-19.67-9.99-29.16-5.57-17.11-12.14-32.92-18.5-48.21-5.17-12.44-10.06-24.19-13.98-35.63-.85-2.48-1.45-4.5-1.87-6.13-.02-.07,0-.14.07-.18,1.31-.83,2.96-1.8,5.03-2.9,17.34-9.28,35.01-17.91,53.72-27.05,23.19-11.33,47.18-23.04,70.79-36.25,31.99-17.89,57.3-36.85,77.37-57.96,33.8-35.56,48.29-88.76,37.8-138.85-10.08-48.17-42.15-86.85-87.97-106.11-29.82-12.54-60.19-26.74-89.56-40.47-32.44-15.17-65.98-30.85-100.22-45.03-55.16-22.85-109.55-34.43-161.65-34.43-136.69,0-248.58,77.59-315.06,218.48-48.62,103.05-60.09,211.38-64.65,294.26-2.16,39.26,9.82,74.79,33.72,100.04,22.86,24.15,55.14,37.46,90.89,37.46,13.44,0,27.33-1.87,41.29-5.55,34.77-9.17,68.9-20.07,101.9-30.61,18.49-5.9,37.61-12.01,56.26-17.61,9.45-2.84,20.63-5.2,35.22-7.44,3.46-.53,6.75-.8,9.8-.8,10.93,0,23,2.84,37.14,23.43,28.62,41.68,46.1,91.32,51.95,147.54,12.17,116.73,10.01,236.98-6.67,365.56-3.36,25.93-25.57,45.27-51.72,45.27-8.4,0-16.8,0-25.2,0-130.63,0-263.42.12-391.85.24l-43.54.04c-22.9.02-46.16.09-68.65.16-26.68.08-54.27.16-81.36.16-6.12,0-12.23,0-18.34-.01-.03,0-.05,0-.08,0-3.78,0-6.84-3.08-6.86-6.86,0-.36,0-.73,0-1.11.02-66,.05-131.99.09-197.99.11-179.61.21-365.33-.17-548.03-.16-75.69,1.12-138.41,18.73-199.13,16.79-57.89,39.33-110.69,66.99-156.92,27.05-45.2,59.75-85.37,97.19-119.38,74.94-68.07,172.21-114.57,289.12-138.22,47.4-9.59,94.35-14.45,139.55-14.45,68.8,0,135.72,11.26,198.9,33.46,64.26,22.58,126.28,57.06,184.32,102.47,19.5,15.26,37.76,33.13,57.09,52.04,9.03,8.84,18.37,17.98,27.83,26.8l11.61,10.83c16.21,15.12,41.25,15.49,57.89.84l11.92-10.49c12.41-10.92,24.63-22.13,36.45-32.97,25.28-23.18,49.16-45.08,74.56-64.24,51.37-38.77,109.78-68.63,173.61-88.76,61.88-19.51,127.18-29.41,194.09-29.41,90.7,0,181.58,18.63,262.82,53.89,41.27,17.91,79.99,40.04,115.09,65.78,36,26.4,68.33,56.71,96.1,90.09,43.43,52.22,76.38,109.64,97.91,170.68,21.23,60.17,32.06,125.77,32.2,194.99.38,187,.11,377.18-.14,561.1Z"/>
    <g>
      <path class="cls-2" d="M626.21,542.56c.62,1.7,1.29,3.39,1.85,5.11.31.96.85,1.48,1.83,1.77,7.04,2.1,13.5,5.29,18.99,10.25,4.79,4.33,8.09,9.61,10.07,15.74,3.59,11.15,1.43,21.66-3.53,31.85-.62,1.27-.85,2.25-.1,3.68,4.46,8.52,6.8,17.52,5.53,27.23-.94,7.17-4.02,13.37-8.7,18.78-5.56,6.43-12.78,10.31-20.71,13.02-.9.31-1.41.73-1.7,1.69-2.32,7.63-5.81,14.65-11.59,20.26-9.85,9.56-21.64,12.39-34.92,9.57-4.33-.92-8.45-2.49-12.39-4.51-1.01-.52-1.75-.28-2.65.19-8.29,4.3-16.99,6.87-26.44,5.76-9.69-1.14-17.56-5.65-23.77-13.12-4.02-4.84-7.04-10.24-8.89-16.26-.36-1.17-.99-1.75-2.15-2.09-5.65-1.63-10.91-4.1-15.63-7.64-8.82-6.61-13.8-15.41-14.78-26.4-.66-7.45,1.04-14.5,3.99-21.3.53-1.23,1.25-2.38,1.67-3.65.19-.59.07-1.45-.24-2.01-3.06-5.52-5-11.41-5.72-17.64-1.6-13.99,3.34-25.33,14.37-34.01,4.31-3.4,9.14-5.92,14.38-7.56,1.42-.44,2.18-1.2,2.63-2.64,2.27-7.28,5.76-13.91,11.18-19.33,8.38-8.38,18.58-11.8,30.35-10.58,6,.62,11.63,2.55,17,5.23.91.45,1.64.47,2.53-.02,5.36-2.92,11.05-4.93,17.11-5.72,11.95-1.56,22.3,1.84,30.94,10.25,4.14,4.03,7.28,8.75,9.5,14.1ZM624.97,643.38c1.03-.44,2.09-.84,3.09-1.34,4.73-2.38,6.69-6.38,5.74-11.56-.59-3.23-1.77-6.25-3.59-8.96-2.4-3.58-4.95-7.07-7.52-10.53-.68-.92-.6-1.54,0-2.38,1.48-2.07,2.86-4.22,4.35-6.29,2.93-4.07,5.34-8.37,6.22-13.4.75-4.27-.8-7.93-4.33-10.34-3.92-2.68-8.32-3.92-12.93-4.65-3.11-.49-6.22-1.04-9.34-1.51-.74-.11-1.02-.46-1.13-1.15-.3-1.88-.67-3.74-.97-5.61-.96-5.92-2.17-11.74-5.92-16.67-2.17-2.86-4.99-4.32-8.63-4.01-3.31.28-6.36,1.45-9.1,3.19-4.11,2.61-8.06,5.49-12.02,8.34-.82.59-1.32.62-2.12.02-2.07-1.55-4.23-2.99-6.33-4.5-3.75-2.68-7.77-4.85-12.26-6.02-5.17-1.35-9.19.21-12.05,4.7-2.17,3.41-3.34,7.2-4.04,11.14-.61,3.49-1.08,7-1.56,10.51-.11.78-.42,1.1-1.2,1.22-1.71.25-3.4.62-5.11.89-5.56.91-11.07,1.98-15.97,4.99-3.27,2.01-5.34,4.75-5.26,8.76.08,3.6,1.23,6.93,3.11,9.91,2.62,4.15,5.54,8.12,8.37,12.14.45.64.63,1.1.12,1.82-1.9,2.68-3.71,5.42-5.59,8.11-2.58,3.7-4.52,7.66-5.25,12.15-.7,4.33.84,7.68,4.43,10.16,2.6,1.79,5.43,3.1,8.5,3.72,4.44.9,8.93,1.59,13.41,2.31.91.15,1.3.49,1.44,1.43.47,3.07,1.03,6.13,1.61,9.19.77,4.06,2.09,7.91,4.24,11.48,2.78,4.61,7.01,6.54,12.12,5,2.71-.82,5.41-1.94,7.8-3.43,3.74-2.31,7.23-5.03,10.79-7.63.78-.56,1.35-.67,2.17-.06,2.04,1.53,4.14,2.97,6.23,4.43,3.91,2.75,8.02,5.1,12.74,6.2,4.53,1.05,8.63-.23,10.98-3.86,1.39-2.15,2.68-4.51,3.34-6.96,1.13-4.19,1.73-8.53,2.57-12.8.25-1.28.18-2.97.97-3.71.83-.78,2.52-.64,3.83-.9,4.73-.95,9.6-1.35,14.02-3.53Z"/>
      <path class="cls-2" d="M826.69,586.44c-2.24.82-3.82,1.3-5.3,2-.56.26-1.08.95-1.27,1.56-2.03,6.46-4.88,12.49-9.3,17.65-7.83,9.15-17.83,13.5-29.87,13.09-6.99-.24-13.48-2.43-19.71-5.46-.94-.46-1.61-.39-2.51.07-7.96,4.1-16.3,6.75-25.39,5.96-11.13-.97-19.84-6.27-26.5-15.12-3.36-4.46-5.83-9.38-7.49-14.7-.29-.92-.77-1.4-1.73-1.68-6.41-1.88-12.46-4.57-17.53-8.96-12.17-10.53-15.8-23.79-11.74-39.18.94-3.56,2.6-6.94,4.05-10.35.44-1.04.4-1.83-.12-2.78-3.2-5.82-5.2-12.03-5.83-18.66-.71-7.47.61-14.51,4.29-21.11,3.93-7.06,9.65-12.25,16.77-15.88,2.84-1.45,5.87-2.5,8.78-3.83.57-.26,1.16-.9,1.35-1.49,2.56-7.83,6.16-15.08,12.24-20.78,9.53-8.93,20.84-11.76,33.57-9.24,4.7.93,9.11,2.65,13.41,4.73.52.25,1.34.17,1.91-.05,3.78-1.47,7.43-3.34,11.3-4.47,11.3-3.31,22.07-2.07,31.92,4.71,8.11,5.59,13.14,13.45,16.19,22.67.5,1.49,1.19,2.33,2.78,2.78,6.99,2.01,13.28,5.35,18.64,10.33,2.93,2.73,5.33,5.85,7.18,9.42,3.03,5.84,4.55,12,4.28,18.58-.19,4.7-1.18,9.25-2.84,13.64-.84,2.22-1.83,4.38-2.86,6.52-.38.8-.4,1.41.03,2.17,2.78,4.94,4.61,10.22,5.59,15.8,1.16,6.6.83,13.13-1.57,19.39-3.14,8.21-8.57,14.63-16.16,19.13-2.34,1.39-4.78,2.59-6.53,3.53ZM815.34,561.59c1.03-.44,2.09-.83,3.09-1.34,4.79-2.46,6.67-6.42,5.68-11.69-.71-3.76-2.33-7.15-4.44-10.28-2.1-3.11-4.37-6.1-6.63-9.1-.62-.82-.66-1.45-.05-2.3,1.66-2.31,3.23-4.7,4.86-7.03,2.86-4.07,5.2-8.36,5.84-13.4.41-3.2-.35-6.01-2.74-8.27-2.81-2.66-6.24-4.23-9.94-5.05-4.29-.96-8.67-1.56-13.01-2.3-1.92-.33-1.98-.35-2.31-2.32-.42-2.51-.81-5.03-1.27-7.53-.89-4.79-2.3-9.4-5.18-13.42-2.53-3.54-5.92-5.04-10.25-4.19-3.4.67-6.53,2.07-9.38,3.95-3.35,2.21-6.57,4.61-9.8,6.99-1.58,1.16-1.54,1.23-3.19.07-1.45-1.02-2.88-2.05-4.32-3.09-3.9-2.81-7.96-5.33-12.6-6.79-6.02-1.9-10.51-.28-13.66,5.15-1.81,3.13-2.95,6.54-3.54,10.1-.6,3.58-1.09,7.17-1.61,10.76-.1.71-.28,1.16-1.13,1.29-2.52.38-5.02.86-7.54,1.29-4.75.82-9.36,2.03-13.56,4.53-4,2.38-5.89,6.05-5.19,10.41.52,3.29,1.66,6.39,3.44,9.16,2.36,3.66,4.96,7.17,7.55,10.67.82,1.1.98,1.93.09,3.06-1.17,1.49-2.16,3.13-3.26,4.67-3.05,4.27-5.84,8.64-7,13.89-1.07,4.86.45,8.83,4.62,11.5,2.87,1.84,5.98,3.13,9.32,3.74,3.95.72,7.92,1.36,11.89,1.97,1.09.17,1.66.57,1.82,1.74.28,2.14.75,4.25,1.09,6.38.86,5.43,2.27,10.65,5.53,15.19,2.34,3.26,5.47,4.79,9.53,4.19,3.62-.54,6.9-2.03,9.92-3.96,3.6-2.3,6.99-4.92,10.43-7.45.78-.58,1.36-.65,2.17-.05,2.15,1.59,4.37,3.09,6.55,4.64,3.87,2.76,7.98,5.03,12.67,6.02,4.22.89,7.87-.09,10.61-3.67,1.84-2.41,3.13-5.13,3.78-8.03.99-4.37,1.62-8.82,2.39-13.24.48-2.76-.09-2.53,2.88-2.99.64-.1,1.28-.22,1.91-.35,4.69-.96,9.52-1.34,13.9-3.51Z"/>
    </g>
    <g>
      <path class="cls-2" d="M1751.03,401.48c-.6,1.3-1.17,2.62-1.83,3.9-.36.71-.36,1.3.03,2.02,2.77,5.12,4.6,10.52,4.9,16.38.26,5.11-.85,9.91-3.18,14.45-4.23,8.25-11.33,12.93-19.81,15.86-1.05.36-1.74.78-2.12,2.01-2.27,7.27-6,13.62-12.15,18.35-4.54,3.49-9.74,5.24-15.39,5.65-6.71.48-12.93-1.38-18.89-4.3-.68-.33-1.2-.38-1.9,0-5.57,2.97-11.46,4.95-17.84,4.85-10.87-.16-19.06-5.18-24.92-14.19-1.91-2.94-3.34-6.13-4.41-9.46-.28-.85-.82-1.14-1.59-1.38-7.05-2.23-13.36-5.67-18.03-11.58-4.79-6.06-6.67-13-5.97-20.66.46-4.96,1.79-9.68,4.13-14.09.45-.86.43-1.53-.04-2.37-2.25-4.08-3.81-8.41-4.48-13.03-1.24-8.64.9-16.36,6.51-23.06,3.8-4.55,8.71-7.54,14.16-9.7.99-.39,2.04-.63,2.98-1.11.44-.22.85-.78.99-1.26,1.38-4.8,3.59-9.19,6.68-13.08,6.94-8.73,16.05-12.32,27.09-11,4.32.51,8.43,1.8,12.29,3.82,1.04.55,1.89.55,2.95,0,5.35-2.8,11.02-4.57,17.09-4.56,9.38,0,17.02,3.8,22.92,11.07,3.01,3.71,5.08,7.94,6.59,12.45.25.76.65,1.18,1.43,1.41,4.64,1.37,8.95,3.42,12.79,6.38,7.57,5.82,11.46,13.52,11.59,23.07.06,4.57-.83,8.98-2.58,13.22ZM1693.88,457.24c.83.33,1.64.7,2.48.98,3.98,1.32,7.32.17,9.69-3.26,1.48-2.14,2.51-4.49,3.01-7.03.66-3.35,1.19-6.73,1.69-10.11.13-.9.53-1.2,1.34-1.33,1.99-.33,3.97-.76,5.96-1.08,3.92-.64,7.67-1.7,10.99-4.02,2.81-1.97,3.99-4.89,3.37-8.21-.7-3.7-2.46-6.86-4.64-9.85-1.47-2.02-2.9-4.06-4.38-6.07-.35-.48-.31-.83.01-1.28.88-1.22,1.72-2.47,2.6-3.69,2.78-3.85,5.36-7.79,6.02-12.65.38-2.82-.38-5.21-2.59-7.08-2.01-1.7-4.38-2.75-6.88-3.31-3.77-.84-7.59-1.44-11.4-2.06-.79-.13-1.09-.39-1.2-1.18-.29-2.03-.69-4.04-1.03-6.07-.6-3.61-1.64-7.06-3.49-10.24-2.14-3.65-5.26-5.03-9.38-4.12-3.13.69-5.91,2.16-8.5,3.98-2.3,1.61-4.52,3.32-6.76,5.01-.5.38-.85.38-1.35,0-1.09-.82-2.25-1.56-3.36-2.36-3.62-2.61-7.31-5.09-11.74-6.15-2.96-.71-5.65-.33-7.85,1.96-1.97,2.06-3.19,4.57-3.81,7.29-.86,3.79-1.44,7.65-2.11,11.49-.11.61-.27.97-.96,1.09-2.56.44-5.11.95-7.67,1.41-3.51.63-6.82,1.76-9.74,3.87-2.82,2.03-3.83,4.77-3.21,8.17.45,2.46,1.31,4.78,2.68,6.84,1.99,2.99,4.11,5.89,6.21,8.8.43.59.45,1,0,1.61-1.45,1.99-2.86,4.01-4.24,6.05-1.84,2.71-3.26,5.6-4.06,8.8-1.02,4.14.26,7.59,3.99,9.59,1.97,1.06,4.12,1.94,6.29,2.45,3.39.8,6.87,1.23,10.31,1.77.75.12,1.13.38,1.25,1.18.29,2,.66,3.98,1,5.97.65,3.73,1.63,7.34,3.66,10.6,1.94,3.13,4.96,4.71,8.31,3.99,1.98-.43,4.03-1.02,5.77-2.02,2.98-1.71,5.74-3.81,8.61-5.73.86-.58,1.76-1.56,2.62-1.53.9.03,1.77,1.05,2.65,1.64,3.18,2.12,6.14,4.62,9.83,5.88Z"/>
      <path class="cls-2" d="M1838.73,538.33c-1.71-.79-2.87-1.41-4.09-1.85-.46-.17-1.14-.07-1.59.16-4.75,2.48-9.73,4.26-15.1,4.68-9.51.74-17.55-2.42-24.06-9.4-3.78-4.05-6.19-8.91-7.98-14.1-.27-.78-.68-1.12-1.44-1.37-6.76-2.16-12.91-5.35-17.56-10.88-5.69-6.77-7.6-14.62-6.37-23.31.62-4.38,1.99-8.52,4.04-12.43.35-.67.35-1.22-.03-1.91-2.54-4.64-4.42-9.54-4.8-14.83-.92-12.72,4.48-22.17,15.37-28.52,2.52-1.47,5.34-2.43,8.06-3.53.83-.33,1.25-.8,1.49-1.63,1.47-5.05,3.83-9.65,7.19-13.72,3.78-4.58,8.47-7.79,14.22-9.42,6.16-1.75,12.26-1.46,18.29.5,2.4.78,4.69,1.89,7.06,2.77.46.17,1.15.15,1.59-.08,5.82-2.95,11.9-5,18.49-4.78,10.34.33,18.26,5.08,23.98,13.63,2.11,3.15,3.62,6.59,4.86,10.16.15.43.66.85,1.1,1.04,2.94,1.29,6.03,2.29,8.83,3.82,8.18,4.48,13.52,11.2,15.24,20.51,1.41,7.68-.18,14.89-3.63,21.76-.56,1.11-.64,1.97,0,3.11,2.79,5.04,4.44,10.43,4.65,16.22.12,3.17-.29,6.26-1.26,9.3-1.57,4.97-4.17,9.27-8.01,12.8-2.74,2.52-5.84,4.52-9.23,6.05-1.71.77-3.48,1.43-5.25,2.05-.66.23-1.01.57-1.2,1.23-1.21,4.32-3.14,8.3-5.72,11.98-3.05,4.35-6.89,7.82-11.74,9.98-6.36,2.84-12.99,3.39-19.77,1.66-2.08-.53-4.13-1.23-5.64-1.68ZM1846.29,518.06c.83.33,1.64.71,2.48.98,4.06,1.3,7.33.14,9.73-3.36,1.71-2.5,2.7-5.31,3.27-8.24.57-2.92.97-5.87,1.39-8.81.12-.81.44-1.18,1.26-1.31,2.23-.36,4.44-.83,6.66-1.21,3.88-.68,7.6-1.77,10.78-4.23,2.02-1.56,3.17-3.56,3.1-6.16-.09-3.06-1.13-5.87-2.73-8.39-1.87-2.94-3.98-5.73-6-8.57-.89-1.26-.91-1.31,0-2.59,1.17-1.64,2.37-3.27,3.51-4.93,2.19-3.18,3.97-6.55,4.61-10.42.56-3.4-.49-6.14-3.39-8.08-2.28-1.53-4.81-2.5-7.47-3.04-3.11-.64-6.26-1.1-9.41-1.57-1.54-.23-1.55-.17-1.83-1.75-.24-1.38-.46-2.76-.69-4.15-.61-3.76-1.47-7.44-3.25-10.86-2.31-4.43-5.73-6.04-10.53-4.76-2.77.74-5.31,2.01-7.64,3.67-2.34,1.67-4.63,3.4-6.93,5.13-.46.34-.81.49-1.35.09-1.62-1.2-3.29-2.33-4.94-3.5-3.12-2.21-6.38-4.1-10.13-5.06-3.57-.91-6.69.09-8.74,2.92-1.55,2.13-2.65,4.51-3.2,7.06-.73,3.37-1.24,6.79-1.74,10.2-.16,1.08-.53,1.63-1.66,1.77-1.49.18-2.96.54-4.44.79-4.1.68-8.11,1.57-11.7,3.86-3.32,2.12-4.69,5.2-3.85,9.03.58,2.64,1.6,5.1,3.13,7.31,1.81,2.62,3.67,5.19,5.55,7.76.52.7.61,1.25.04,1.99-1.04,1.36-1.96,2.8-2.96,4.19-2.56,3.52-4.7,7.24-5.41,11.61-.51,3.13.38,5.75,2.99,7.68,2.33,1.72,5.01,2.73,7.78,3.34,3.3.73,6.67,1.16,10.02,1.67.76.12,1.13.4,1.25,1.19.31,2.1.72,4.18,1.07,6.27.62,3.71,1.65,7.29,3.72,10.47,1.86,2.86,4.46,4.36,8,3.88,2.38-.32,4.63-1.12,6.62-2.38,3-1.9,5.85-4.03,8.76-6.07,1.82-1.27,1.36-1.47,3.29-.06.41.3.84.59,1.27.87,3.16,2.09,6.08,4.58,9.75,5.82Z"/>
    </g>
  </g>
</svg>