<?xml version="1.0" encoding="UTF-8"?>
<svg id="Layer_2" data-name="Layer 2" xmlns="http://www.w3.org/2000/svg" viewBox="0 0 694.09 1149.39">
  <defs>
    <style>
      .cls-1 {
        fill: #fff;
      }
    </style>
  </defs>
  <g id="Layer_1-2" data-name="Layer 1">
    <path class="cls-1" d="M431.41,1149.39h133.59c-.78-6.75-1.59-13.48-2.16-20.22-13.38-157.03-24.89-314.25-41.25-470.96-4.49-42.98-22.5-84.75-36.09-126.5-9.07-27.87-22.35-54.35-31.85-82.1-13.53-39.51-5.12-61.76,31.65-81.44,40.29-21.57,82.39-39.82,122.25-62.11,22.48-12.57,44.74-27.79,62.36-46.33,36.51-38.4,35.48-118.46-29.41-145.74-63.18-26.56-124.2-58.27-187.51-84.49C283.49-40.7,136.69,16.06,58.49,181.8,18.47,266.62,5.24,358.26.16,450.67c-2.98,54.13,35.68,83.31,88.95,69.26,52.04-13.73,102.96-31.66,154.55-47.16,14-4.21,28.53-6.98,43-9.2,45.23-6.95,79.58,10.69,105.01,47.74,36.01,52.44,55.13,111.41,61.63,173.74,15.85,152.12,7.02,303.45-18.54,454.09-.74,4.36-1.87,7.69-3.35,10.26Z"/>
  </g>
</svg>