<?xml version="1.0" encoding="UTF-8"?>
<svg id="Layer_2" data-name="Layer 2" xmlns="http://www.w3.org/2000/svg" viewBox="0 0 1628.68 1236.03">
  <defs>
    <style>
      .cls-1 {
        fill: #fff;
      }
    </style>
  </defs>
  <g id="Layer_1-2" data-name="Layer 1">
    <path class="cls-1" d="M431.41,1236.03h133.59c-.78-6.75-1.59-13.48-2.16-20.22-13.38-157.03-24.89-314.25-41.25-470.96-4.49-42.98-22.5-84.75-36.09-126.5-9.07-27.87-22.35-54.35-31.85-82.1-13.53-39.51-5.12-61.76,31.65-81.44,40.29-21.57,82.39-39.82,122.25-62.11,22.48-12.57,44.74-27.79,62.36-46.33,36.51-38.4,35.48-118.46-29.41-145.74-63.18-26.56-124.2-58.27-187.51-84.49-169.5-70.2-316.3-13.45-394.5,152.29C18.47,353.25,5.24,444.89.16,537.3c-2.98,54.13,35.68,83.31,88.95,69.26,52.04-13.73,102.96-31.66,154.55-47.16,14-4.21,28.53-6.98,43-9.2,45.23-6.95,79.58,10.69,105.01,47.74,36.01,52.44,55.13,111.41,61.63,173.74,15.85,152.12,7.02,303.45-18.54,454.09-.74,4.36-1.87,7.69-3.35,10.26Z"/>
    <path class="cls-1" d="M1348.76,1225.78c-39.53-167.11-74.77-334.86-77.93-507.52-1.62-88.5.9-176.84,31.16-261.29,10.35-28.88,24.05-57.46,41.18-82.83,28.32-41.94,55.28-47.47,101.39-27.37,36.66,15.98,72.98,32.81,110.07,47.7,44.97,18.05,66.94,4.97,72.1-42.9,2.08-19.29,3.19-39.56-.35-58.44-18.49-98.65-63.13-183.99-141.16-247.97-57.64-47.26-127.33-51.42-198.13-39.51-88.29,14.84-161.81,54.99-213.36,130.23-8.24,12.03-15.61,25.13-20.77,38.73-11.33,29.86-2.3,53.98,27.12,66.7,29.87,12.91,61.19,22.52,92.05,33.09,13.11,4.49,26.67,7.67,40,11.54,51.31,14.89,56.09,23.47,37.56,72.63-72.83,193.28-92.51,393.73-76.23,597.89,7.43,93.14,23.41,185.6,35.93,279.57h143.05c-1.57-2.74-2.73-6.14-3.7-10.25Z"/>
  </g>
</svg>