<?xml version="1.0" encoding="UTF-8"?>
<svg id="Layer_2" data-name="Layer 2" xmlns="http://www.w3.org/2000/svg" viewBox="0 0 580.43 1236.03">
  <defs>
    <style>
      .cls-1 {
        fill: #fff;
      }
    </style>
  </defs>
  <g id="Layer_1-2" data-name="Layer 1">
    <path class="cls-1" d="M300.51,1225.78c-39.53-167.11-74.77-334.86-77.93-507.52-1.62-88.5.9-176.84,31.16-261.29,10.35-28.88,24.05-57.46,41.18-82.83,28.32-41.94,55.28-47.47,101.39-27.37,36.66,15.98,72.98,32.81,110.07,47.7,44.97,18.05,66.94,4.97,72.1-42.9,2.08-19.29,3.19-39.56-.35-58.44-18.49-98.65-63.13-183.99-141.16-247.97C379.35-2.1,309.65-6.26,238.85,5.65,150.57,20.49,77.04,60.64,25.49,135.88c-8.24,12.03-15.61,25.13-20.77,38.73-11.33,29.86-2.3,53.98,27.12,66.7,29.87,12.91,61.19,22.52,92.05,33.09,13.11,4.49,26.67,7.67,40,11.54,51.31,14.89,56.09,23.47,37.56,72.63-72.83,193.28-92.51,393.73-76.23,597.89,7.43,93.14,23.41,185.6,35.93,279.57h143.05c-1.57-2.74-2.73-6.14-3.7-10.25Z"/>
  </g>
</svg>